<svg width="15" height="17" viewBox="0 0 15 17" fill="none" xmlns="http://www.w3.org/2000/svg">
<path fill-rule="evenodd" clip-rule="evenodd" d="M12.7494 2.1V4.54425C13.0449 4.54425 13.3375 4.60245 13.6104 4.71552C13.8834 4.82859 14.1315 4.99433 14.3404 5.20326C14.5493 5.41219 14.7151 5.66023 14.8281 5.93321C14.9412 6.20619 14.9994 6.49878 14.9994 6.79425C14.9994 7.08972 14.9412 7.38231 14.8281 7.65529C14.7151 7.92827 14.5493 8.17631 14.3404 8.38524C14.1315 8.59417 13.8834 8.75991 13.6104 8.87298C13.3375 8.98605 13.0449 9.04425 12.7494 9.04425V11.2943C12.7494 12.5302 11.3386 13.236 10.3494 12.4943L8.8044 11.3348C7.97851 10.7156 7.01695 10.3021 5.9994 10.1287V12.2618C5.99948 12.7521 5.82232 13.2259 5.50057 13.5958C5.17883 13.9658 4.73419 14.207 4.24861 14.275C3.76304 14.3429 3.26926 14.2331 2.85831 13.9656C2.44736 13.6982 2.14693 13.2912 2.0124 12.8197L0.834899 8.69775C0.411162 8.19734 0.135402 7.58866 0.0386139 6.94013C-0.0581736 6.2916 0.0278489 5.62893 0.287012 5.0266C0.546175 4.42428 0.968205 3.90618 1.50566 3.53055C2.04312 3.15491 2.6747 2.93664 3.3294 2.90025L5.5929 2.77425C6.70038 2.71273 7.77743 2.38911 8.7354 1.83L10.4934 0.804C11.4939 0.22125 12.7494 0.942 12.7494 2.1ZM2.7249 9.85275L3.45465 12.408C3.48977 12.5317 3.56846 12.6385 3.67618 12.7087C3.7839 12.7789 3.91339 12.8077 4.04072 12.7899C4.16806 12.7721 4.28464 12.7088 4.36895 12.6117C4.45326 12.5146 4.49959 12.3903 4.4994 12.2618V10.0042L3.3294 9.939C3.12589 9.92673 2.92372 9.89789 2.7249 9.85275ZM11.2494 2.1L9.49065 3.12675C8.42261 3.75054 7.23097 4.13299 5.9994 4.24725V8.6115C7.33965 8.796 8.6154 9.31875 9.7044 10.1348L11.2494 11.2943V2.1ZM4.4994 4.33725L3.4119 4.39725C2.90598 4.42518 2.42892 4.64177 2.07489 5.00424C1.72085 5.36672 1.51556 5.84875 1.49955 6.35518C1.48354 6.86161 1.65797 7.35565 1.9884 7.73976C2.31883 8.12388 2.78126 8.37016 3.2844 8.43L3.4119 8.44125L4.4994 8.50125V4.33725ZM12.7494 6.04425V7.54425C12.9406 7.54404 13.1244 7.47084 13.2634 7.33961C13.4024 7.20839 13.4861 7.02904 13.4973 6.8382C13.5085 6.64737 13.4464 6.45947 13.3237 6.31288C13.201 6.16629 13.027 6.07208 12.8371 6.0495L12.7494 6.04425Z" fill="#838383"/>
</svg>
