<svg width="24" height="25" viewBox="0 0 24 25" fill="none" xmlns="http://www.w3.org/2000/svg">
<g id="oui:arrow-up">
<path id="Vector" d="M16.2649 20.1037L9.34844 13.0762C9.19675 12.9228 9.11167 12.7159 9.11167 12.5002C9.11167 12.2845 9.19675 12.0775 9.34844 11.9242L16.2634 4.89667C16.4151 4.74238 16.5 4.53472 16.5 4.31841C16.5 4.10211 16.4151 3.89445 16.2634 3.74017C16.1894 3.66419 16.1009 3.60381 16.0031 3.56259C15.9053 3.52136 15.8003 3.50012 15.6942 3.50012C15.5881 3.50012 15.4831 3.52136 15.3853 3.56259C15.2875 3.60381 15.199 3.66419 15.1249 3.74017L8.20994 10.7662C7.75556 11.2289 7.50098 11.8516 7.50098 12.5002C7.50098 13.1487 7.75556 13.7714 8.20994 14.2342L15.1249 21.2602C15.199 21.3364 15.2876 21.3969 15.3856 21.4383C15.4835 21.4797 15.5887 21.501 15.6949 21.501C15.8012 21.501 15.9064 21.4797 16.0043 21.4383C16.1022 21.3969 16.1909 21.3364 16.2649 21.2602C16.4166 21.1059 16.5015 20.8982 16.5015 20.6819C16.5015 20.4656 16.4166 20.2579 16.2649 20.1037Z" fill="#838383"/>
</g>
</svg>
