<svg width="28" height="28" viewBox="0 0 28 28" fill="none" xmlns="http://www.w3.org/2000/svg">
<g id="ph:arrow-up-light">
<path id="Vector" d="M15.2403 22.041C15.1218 21.9224 15.0553 21.7615 15.0553 21.5938C15.0553 21.4261 15.1218 21.2653 15.2403 21.1466L21.753 14.6329H4.71876C4.55092 14.6329 4.38997 14.5662 4.27129 14.4476C4.15262 14.3289 4.08595 14.1679 4.08595 14.0001C4.08595 13.8323 4.15262 13.6713 4.27129 13.5526C4.38997 13.4339 4.55092 13.3673 4.71876 13.3673H21.753L15.2403 6.85352C15.1285 6.73356 15.0677 6.5749 15.0706 6.41096C15.0735 6.24701 15.1399 6.0906 15.2558 5.97465C15.3718 5.85871 15.5282 5.7923 15.6921 5.78941C15.8561 5.78651 16.0147 5.84737 16.1347 5.95915L23.7284 13.5529C23.847 13.6715 23.9135 13.8324 23.9135 14.0001C23.9135 14.1678 23.847 14.3286 23.7284 14.4473L16.1347 22.041C16.016 22.1595 15.8552 22.2261 15.6875 22.2261C15.5198 22.2261 15.359 22.1595 15.2403 22.041Z" fill="#04C2C4"/>
</g>
</svg>
