<svg width="41" height="55" viewBox="0 0 41 55" fill="none" xmlns="http://www.w3.org/2000/svg">
<g id="fa6-solid:manat-sign" clip-path="url(#clip0_2205_9686)">
<path id="Vector" d="M20.5 4.05273C18.6562 4.05273 17.1667 5.54232 17.1667 7.38607V11.0007C7.70833 12.584 0.5 20.8132 0.5 30.7194V47.3861C0.5 49.2298 1.98958 50.7194 3.83333 50.7194C5.67708 50.7194 7.16667 49.2298 7.16667 47.3861V30.7194C7.16667 24.5111 11.4167 19.2819 17.1667 17.8027V47.3861C17.1667 49.2298 18.6562 50.7194 20.5 50.7194C22.3438 50.7194 23.8333 49.2298 23.8333 47.3861V17.8027C29.5833 19.2819 33.8333 24.5007 33.8333 30.7194V47.3861C33.8333 49.2298 35.3229 50.7194 37.1667 50.7194C39.0104 50.7194 40.5 49.2298 40.5 47.3861V30.7194C40.5 20.8132 33.2917 12.584 23.8333 11.0007V7.38607C23.8333 5.54232 22.3438 4.05273 20.5 4.05273Z" fill="#092BC8"/>
</g>
<defs>
<clipPath id="clip0_2205_9686">
<rect width="40" height="53.3333" fill="white" transform="translate(0.5 0.719727)"/>
</clipPath>
</defs>
</svg>
