<svg width="17" height="17" viewBox="0 0 17 17" fill="none" xmlns="http://www.w3.org/2000/svg">
<g clip-path="url(#clip0_851_3785)">
<path d="M3.55469 0.5H14.5547V16.5H3.55469C3.27865 16.5 3.02083 16.4479 2.78125 16.3438C2.54167 16.2396 2.32812 16.0964 2.14062 15.9141C1.95312 15.7318 1.8099 15.5208 1.71094 15.2812C1.61198 15.0417 1.5599 14.7812 1.55469 14.5V2.5C1.55469 2.22396 1.60677 1.96615 1.71094 1.72656C1.8151 1.48698 1.95833 1.27344 2.14062 1.08594C2.32292 0.898438 2.53385 0.755208 2.77344 0.65625C3.01302 0.557292 3.27344 0.505208 3.55469 0.5ZM13.5547 15.5V13.5H3.55469C3.41406 13.5 3.28385 13.526 3.16406 13.5781C3.04427 13.6302 2.9401 13.7005 2.85156 13.7891C2.76302 13.8776 2.6901 13.9844 2.63281 14.1094C2.57552 14.2344 2.54948 14.3646 2.55469 14.5C2.55469 14.6406 2.58073 14.7708 2.63281 14.8906C2.6849 15.0104 2.75521 15.1146 2.84375 15.2031C2.93229 15.2917 3.03906 15.3646 3.16406 15.4219C3.28906 15.4792 3.41927 15.5052 3.55469 15.5H13.5547ZM13.5547 12.5V1.5H3.55469C3.41406 1.5 3.28385 1.52604 3.16406 1.57812C3.04427 1.63021 2.9401 1.70052 2.85156 1.78906C2.76302 1.8776 2.6901 1.98438 2.63281 2.10938C2.57552 2.23438 2.54948 2.36458 2.55469 2.5V12.7656C2.86719 12.5885 3.20052 12.5 3.55469 12.5H13.5547ZM7.55469 10.5V5.5H8.55469V10.5H7.55469ZM7.55469 4.5V3.5H8.55469V4.5H7.55469Z" fill="#757575"/>
</g>
<defs>
<clipPath id="clip0_851_3785">
<rect width="16" height="16" fill="white" transform="translate(0.554688 0.5)"/>
</clipPath>
</defs>
</svg>
