<svg width="17" height="17" viewBox="0 0 17 17" fill="none" xmlns="http://www.w3.org/2000/svg">
<path d="M8.49967 1.89453C7.6242 1.89453 6.75729 2.06697 5.94845 2.402C5.13961 2.73703 4.40469 3.2281 3.78563 3.84715C2.53539 5.0974 1.83301 6.79309 1.83301 8.5612C1.83301 10.3293 2.53539 12.025 3.78563 13.2752C4.40469 13.8943 5.13961 14.3854 5.94845 14.7204C6.75729 15.0554 7.6242 15.2279 8.49967 15.2279C10.2678 15.2279 11.9635 14.5255 13.2137 13.2752C14.464 12.025 15.1663 10.3293 15.1663 8.5612C15.1663 7.68572 14.9939 6.81881 14.6589 6.00997C14.3238 5.20114 13.8328 4.46621 13.2137 3.84715C12.5947 3.2281 11.8597 2.73703 11.0509 2.402C10.2421 2.06697 9.37515 1.89453 8.49967 1.89453ZM11.2997 11.3612L7.83301 9.22786V5.22786H8.83301V8.69453L11.833 10.4945L11.2997 11.3612Z" fill="#15BDE3"/>
</svg>
