<svg width="17" height="17" viewBox="0 0 17 17" fill="none" xmlns="http://www.w3.org/2000/svg">
<path d="M8.49967 1.89355C7.6242 1.89355 6.75729 2.06599 5.94845 2.40102C5.13961 2.73606 4.40469 3.22712 3.78563 3.84618C2.53539 5.09642 1.83301 6.79211 1.83301 8.56022C1.83301 10.3283 2.53539 12.024 3.78563 13.2743C4.40469 13.8933 5.13961 14.3844 5.94845 14.7194C6.75729 15.0544 7.6242 15.2269 8.49967 15.2269C10.2678 15.2269 11.9635 14.5245 13.2137 13.2743C14.464 12.024 15.1663 10.3283 15.1663 8.56022C15.1663 7.68474 14.9939 6.81784 14.6589 6.009C14.3238 5.20016 13.8328 4.46523 13.2137 3.84618C12.5947 3.22712 11.8597 2.73606 11.0509 2.40102C10.2421 2.06599 9.37515 1.89355 8.49967 1.89355ZM11.2997 11.3602L7.83301 9.22689V5.22689H8.83301V8.69355L11.833 10.4936L11.2997 11.3602Z" fill="#03AF11"/>
</svg>
