<svg width="14" height="14" viewBox="0 0 14 14" fill="none" xmlns="http://www.w3.org/2000/svg">
<path d="M8.21756 6.53325L13.8456 0.89975C13.9448 0.799971 14.0005 0.664909 14.0004 0.524147C14.0004 0.383385 13.9445 0.248397 13.8451 0.14875C13.6461 -0.0492501 13.2956 -0.0502499 13.0946 0.14975L7.46806 5.78325L1.83956 0.14825C1.63956 -0.0492501 1.28906 -0.0482501 1.09006 0.14925C1.04066 0.198447 1.00156 0.256988 0.975037 0.321459C0.948511 0.385929 0.93509 0.455037 0.935559 0.52475C0.935559 0.66675 0.990559 0.79975 1.09006 0.89825L6.71806 6.53275L1.09056 12.1678C0.991251 12.2677 0.935638 12.4029 0.935919 12.5438C0.936201 12.6847 0.992353 12.8197 1.09206 12.9192C1.18856 13.0147 1.32506 13.0698 1.46606 13.0698H1.46906C1.61056 13.0693 1.74706 13.0138 1.84156 12.9173L7.46806 7.28375L13.0966 12.9187C13.1961 13.0177 13.3291 13.0728 13.4701 13.0728C13.5397 13.0728 13.6088 13.0591 13.6732 13.0325C13.7375 13.0059 13.7961 12.9668 13.8453 12.9175C13.8946 12.8682 13.9337 12.8097 13.9603 12.7453C13.9869 12.6809 14.0006 12.6119 14.0006 12.5423C14.0006 12.4008 13.9456 12.2673 13.8456 12.1687L8.21756 6.53325Z" fill="black"/>
</svg>
