<svg width="25" height="25" viewBox="0 0 25 25" fill="none" xmlns="http://www.w3.org/2000/svg">
<path d="M12.4998 20.6598C7.98784 20.6598 4.33984 17.0118 4.33984 12.4998C4.33984 7.98784 7.98784 4.33984 12.4998 4.33984C17.0118 4.33984 20.6598 7.98784 20.6598 12.4998C20.6598 17.0118 17.0118 20.6598 12.4998 20.6598ZM12.4998 5.29984C8.51584 5.29984 5.29984 8.51584 5.29984 12.4998C5.29984 16.4838 8.51584 19.6998 12.4998 19.6998C16.4838 19.6998 19.6998 16.4838 19.6998 12.4998C19.6998 8.51584 16.4838 5.29984 12.4998 5.29984Z" fill="#FF0019"/>
<path d="M12.0195 15.8597H12.9795V16.8197H12.0195V15.8597ZM12.7875 14.8997H12.2115L12.0195 11.0597V8.17969H12.9795V11.0597L12.7875 14.8997Z" fill="#FF0019"/>
</svg>
