<svg width="17" height="17" viewBox="0 0 17 17" fill="none" xmlns="http://www.w3.org/2000/svg">
<path d="M8.49967 9.49453L10.433 11.4279C10.5552 11.5501 10.7108 11.6112 10.8997 11.6112C11.0886 11.6112 11.2441 11.5501 11.3663 11.4279C11.4886 11.3056 11.5497 11.1501 11.5497 10.9612C11.5497 10.7723 11.4886 10.6168 11.3663 10.4945L9.43301 8.5612L11.3663 6.62786C11.4886 6.50564 11.5497 6.35009 11.5497 6.1612C11.5497 5.97231 11.4886 5.81675 11.3663 5.69453C11.2441 5.57231 11.0886 5.5112 10.8997 5.5112C10.7108 5.5112 10.5552 5.57231 10.433 5.69453L8.49967 7.62786L6.56634 5.69453C6.44412 5.57231 6.28856 5.5112 6.09967 5.5112C5.91079 5.5112 5.75523 5.57231 5.63301 5.69453C5.51079 5.81675 5.44968 5.97231 5.44968 6.1612C5.44968 6.35009 5.51079 6.50564 5.63301 6.62786L7.56634 8.5612L5.63301 10.4945C5.51079 10.6168 5.44968 10.7723 5.44968 10.9612C5.44968 11.1501 5.51079 11.3056 5.63301 11.4279C5.75523 11.5501 5.91079 11.6112 6.09967 11.6112C6.28856 11.6112 6.44412 11.5501 6.56634 11.4279L8.49967 9.49453ZM8.49967 15.2279C7.57745 15.2279 6.71079 15.0528 5.89968 14.7025C5.08856 14.3523 4.38301 13.8774 3.78301 13.2779C3.18301 12.6783 2.70812 11.9728 2.35834 11.1612C2.00856 10.3496 1.83345 9.48298 1.83301 8.5612C1.83256 7.63942 2.00768 6.77275 2.35834 5.9612C2.70901 5.14964 3.1839 4.44409 3.78301 3.84453C4.38212 3.24498 5.08768 2.77009 5.89968 2.41986C6.71168 2.06964 7.57834 1.89453 8.49967 1.89453C9.42101 1.89453 10.2877 2.06964 11.0997 2.41986C11.9117 2.77009 12.6172 3.24498 13.2163 3.84453C13.8155 4.44409 14.2906 5.14964 14.6417 5.9612C14.9928 6.77275 15.1677 7.63942 15.1663 8.5612C15.165 9.48298 14.9899 10.3496 14.641 11.1612C14.2921 11.9728 13.8172 12.6783 13.2163 13.2779C12.6155 13.8774 11.9099 14.3525 11.0997 14.7032C10.2895 15.0539 9.42279 15.2288 8.49967 15.2279Z" fill="#F60C0C"/>
</svg>
