<svg width="12" height="14" viewBox="0 0 12 14" fill="none" xmlns="http://www.w3.org/2000/svg">
<path d="M0.666748 13.0002H11.3334M1.77741 7.79156C1.49316 8.07645 1.33349 8.46244 1.33341 8.86489V11.0002H3.48208C3.88475 11.0002 4.27075 10.8402 4.55541 10.5549L10.8887 4.21822C11.1729 3.93329 11.3325 3.5473 11.3325 3.14489C11.3325 2.74248 11.1729 2.35649 10.8887 2.07156L10.2634 1.44489C10.1224 1.30379 9.95493 1.19187 9.77063 1.11554C9.58632 1.0392 9.38877 0.999938 9.18928 1C8.98978 1.00006 8.79226 1.03944 8.608 1.1159C8.42374 1.19235 8.25635 1.30437 8.11541 1.44556L1.77741 7.79156Z" stroke="#44860B" stroke-linecap="round" stroke-linejoin="round"/>
</svg>
