<svg width="19" height="18" viewBox="0 0 19 18" fill="none" xmlns="http://www.w3.org/2000/svg">
<g id="Outline / Security / Eye">
<g id="Vector">
<path fill-rule="evenodd" clip-rule="evenodd" d="M9.5 6.1875C7.9467 6.1875 6.6875 7.4467 6.6875 9C6.6875 10.5533 7.9467 11.8125 9.5 11.8125C11.0533 11.8125 12.3125 10.5533 12.3125 9C12.3125 7.4467 11.0533 6.1875 9.5 6.1875ZM7.8125 9C7.8125 8.06802 8.56802 7.3125 9.5 7.3125C10.432 7.3125 11.1875 8.06802 11.1875 9C11.1875 9.93198 10.432 10.6875 9.5 10.6875C8.56802 10.6875 7.8125 9.93198 7.8125 9Z" fill="#838383"/>
<path fill-rule="evenodd" clip-rule="evenodd" d="M9.5 2.4375C6.1144 2.4375 3.83397 4.46565 2.51043 6.18515L2.48656 6.21615C2.18723 6.6049 1.91155 6.96294 1.72452 7.3863C1.52423 7.83965 1.4375 8.33377 1.4375 9C1.4375 9.66623 1.52423 10.1603 1.72452 10.6137C1.91155 11.0371 2.18723 11.3951 2.48656 11.7839L2.51043 11.8149C3.83397 13.5344 6.1144 15.5625 9.5 15.5625C12.8856 15.5625 15.166 13.5344 16.4896 11.8149L16.5134 11.7839C16.8128 11.3951 17.0885 11.0371 17.2755 10.6137C17.4758 10.1603 17.5625 9.66623 17.5625 9C17.5625 8.33377 17.4758 7.83965 17.2755 7.3863C17.0885 6.96293 16.8128 6.60489 16.5134 6.21613L16.4896 6.18515C15.166 4.46565 12.8856 2.4375 9.5 2.4375ZM3.40191 6.87135C4.62398 5.28369 6.61277 3.5625 9.5 3.5625C12.3872 3.5625 14.376 5.28369 15.5981 6.87135C15.927 7.29869 16.1197 7.55404 16.2464 7.84091C16.3649 8.10901 16.4375 8.4367 16.4375 9C16.4375 9.5633 16.3649 9.89099 16.2464 10.1591C16.1197 10.446 15.927 10.7013 15.5981 11.1287C14.376 12.7163 12.3872 14.4375 9.5 14.4375C6.61277 14.4375 4.62398 12.7163 3.40191 11.1287C3.07298 10.7013 2.8803 10.446 2.75357 10.1591C2.63513 9.89099 2.5625 9.5633 2.5625 9C2.5625 8.4367 2.63513 8.10901 2.75357 7.84091C2.8803 7.55404 3.07298 7.29869 3.40191 6.87135Z" fill="#838383"/>
</g>
</g>
</svg>
