<svg width="44" height="44" viewBox="0 0 44 44" fill="none" xmlns="http://www.w3.org/2000/svg">
<g clip-path="url(#clip0_2205_7322)">
<path d="M22 0C19.1231 0 16.9231 2.2 16.9231 5.07692V15.2308C16.9231 18.1077 19.1231 20.3077 22 20.3077H32.1538L38.9231 27.0769V20.3077C41.8 20.3077 44 18.1077 44 15.2308V5.07692C44 2.2 41.8 0 38.9231 0H22ZM29.0874 5.07692H31.9948L34.8514 15.2308H32.3129L31.6242 12.6923H29.0857L28.4528 15.2308H26.2308L29.0874 5.07692ZM30.4615 6.76923C30.2923 7.44615 30.1028 8.272 29.9318 8.77969L29.458 11H31.4668L30.9895 8.778C30.6528 8.272 30.4615 7.44615 30.4615 6.76923ZM5.07692 16.9231C2.2 16.9231 0 19.1231 0 22V32.1538C0 35.0308 2.2 37.2308 5.07692 37.2308V44L11.8462 37.2308H22C24.8769 37.2308 27.0769 35.0308 27.0769 32.1538V22H22C18.7846 22 16.236 19.8 15.3898 16.9231H5.07692ZM12.8514 21.8409C15.7283 21.8409 17.0822 24.2102 17.0822 26.9178C17.0822 29.2871 16.2682 30.7898 14.9143 31.4668C15.5912 31.8052 16.3934 31.9846 17.2395 32.1538L16.6066 33.8462C15.422 33.5077 14.1934 32.9797 13.0088 32.4703C12.8395 32.3011 12.5434 32.3129 12.3742 32.3129C10.3434 32.1437 8.46154 30.4615 8.46154 27.0769C8.46154 24.2 10.1437 21.8409 12.8514 21.8409ZM12.8514 23.6923C11.4975 23.6923 10.8409 25.2154 10.8409 27.0769C10.8409 29.1077 11.4975 30.4615 12.8514 30.4615C14.2052 30.4615 14.9126 28.9385 14.9126 27.0769C14.9126 25.2154 14.2052 23.6923 12.8514 23.6923Z" fill="#FF9F41"/>
</g>
<defs>
<clipPath id="clip0_2205_7322">
<rect width="44" height="44" fill="white"/>
</clipPath>
</defs>
</svg>
