<svg width="37" height="37" viewBox="0 0 37 37" fill="none" xmlns="http://www.w3.org/2000/svg">
<path d="M18.3333 0C8.25 0 0 8.23167 0 18.37C0 27.5367 6.71 35.145 15.4733 36.52V23.6867H10.8167V18.37H15.4733V14.3183C15.4733 9.71667 18.205 7.18667 22.4033 7.18667C24.4017 7.18667 26.4917 7.535 26.4917 7.535V12.0633H24.1817C21.9083 12.0633 21.1933 13.475 21.1933 14.9233V18.37H26.29L25.465 23.6867H21.1933V36.52C25.5135 35.8377 29.4474 33.6334 32.2849 30.3051C35.1224 26.9768 36.6765 22.7437 36.6667 18.37C36.6667 8.23167 28.4167 0 18.3333 0Z" fill="#FF9F41"/>
</svg>
