<svg width="44" height="44" viewBox="0 0 44 44" fill="none" xmlns="http://www.w3.org/2000/svg">
<path d="M23.8847 3.66602C25.9472 3.67152 26.994 3.68252 27.8979 3.70818L28.2535 3.72102C28.6642 3.73568 29.0694 3.75402 29.5589 3.77602C31.5095 3.86768 32.8405 4.17568 34.0084 4.62852C35.2184 5.09418 36.2377 5.72485 37.257 6.74235C38.1896 7.65853 38.911 8.76721 39.3709 9.99102C39.8237 11.1588 40.1317 12.4898 40.2234 14.4423C40.2454 14.93 40.2637 15.3352 40.2784 15.7477L40.2894 16.1033C40.3169 17.0054 40.3279 18.0522 40.3315 20.1147L40.3334 21.4823V23.884C40.3378 25.2213 40.3238 26.5585 40.2912 27.8953L40.2802 28.251C40.2655 28.6635 40.2472 29.0687 40.2252 29.5563C40.1335 31.5089 39.8219 32.838 39.3709 34.0077C38.911 35.2315 38.1896 36.3402 37.257 37.2564C36.3409 38.189 35.2322 38.9104 34.0084 39.3702C32.8405 39.823 31.5095 40.131 29.5589 40.2227L28.2535 40.2777L27.8979 40.2887C26.994 40.3144 25.9472 40.3272 23.8847 40.3309L22.517 40.3327H20.1172C18.7793 40.3374 17.4415 40.3233 16.104 40.2905L15.7484 40.2795C15.3131 40.263 14.878 40.2441 14.443 40.2227C12.4924 40.131 11.1614 39.823 9.99169 39.3702C8.76855 38.9101 7.6605 38.1887 6.74486 37.2564C5.81159 36.3404 5.08956 35.2316 4.62919 34.0077C4.17636 32.8398 3.86836 31.5089 3.77669 29.5563L3.72169 28.251L3.71253 27.8953C3.67873 26.5585 3.66345 25.2213 3.66669 23.884V20.1147C3.66162 18.7774 3.67506 17.4402 3.70703 16.1033L3.71986 15.7477C3.73453 15.3352 3.75286 14.93 3.77486 14.4423C3.86653 12.4898 4.17453 11.1607 4.62736 9.99102C5.0888 8.76671 5.8121 7.65798 6.74669 6.74235C7.66181 5.81019 8.7692 5.08882 9.99169 4.62852C11.1614 4.17568 12.4905 3.86768 14.443 3.77602C14.9307 3.75402 15.3377 3.73568 15.7484 3.72102L16.104 3.71002C17.4409 3.67744 18.7781 3.66339 20.1154 3.66785L23.8847 3.66602ZM22 12.8327C19.5689 12.8327 17.2373 13.7985 15.5182 15.5175C13.7991 17.2366 12.8334 19.5682 12.8334 21.9993C12.8334 24.4305 13.7991 26.7621 15.5182 28.4812C17.2373 30.2002 19.5689 31.166 22 31.166C24.4312 31.166 26.7628 30.2002 28.4818 28.4812C30.2009 26.7621 31.1667 24.4305 31.1667 21.9993C31.1667 19.5682 30.2009 17.2366 28.4818 15.5175C26.7628 13.7985 24.4312 12.8327 22 12.8327ZM22 16.4993C22.7223 16.4992 23.4375 16.6414 24.1049 16.9177C24.7722 17.194 25.3786 17.599 25.8894 18.1096C26.4002 18.6203 26.8054 19.2265 27.0819 19.8937C27.3584 20.561 27.5008 21.2762 27.5009 21.9984C27.5011 22.7207 27.3589 23.4359 27.0826 24.1033C26.8063 24.7706 26.4013 25.377 25.8907 25.8878C25.38 26.3986 24.7738 26.8038 24.1065 27.0803C23.4393 27.3568 22.7241 27.4992 22.0019 27.4993C20.5432 27.4993 19.1442 26.9199 18.1128 25.8884C17.0813 24.857 16.5019 23.458 16.5019 21.9993C16.5019 20.5407 17.0813 19.1417 18.1128 18.1103C19.1442 17.0788 20.5432 16.4993 22.0019 16.4993M31.6269 10.0827C31.0191 10.0827 30.4362 10.3241 30.0064 10.7539C29.5766 11.1837 29.3352 11.7666 29.3352 12.3743C29.3352 12.9821 29.5766 13.565 30.0064 13.9948C30.4362 14.4246 31.0191 14.666 31.6269 14.666C32.2346 14.666 32.8175 14.4246 33.2473 13.9948C33.6771 13.565 33.9185 12.9821 33.9185 12.3743C33.9185 11.7666 33.6771 11.1837 33.2473 10.7539C32.8175 10.3241 32.2346 10.0827 31.6269 10.0827Z" fill="#FF9F41"/>
</svg>
