<svg width="44" height="44" viewBox="0 0 44 44" fill="none" xmlns="http://www.w3.org/2000/svg">
<path d="M38.5 22.239C38.225 22.2573 37.9683 22.349 37.785 22.5507L35.9516 24.384L39.71 28.0507L41.5433 26.2173C41.9466 25.8323 41.9466 25.1907 41.5433 24.8057L39.27 22.5507C39.0864 22.3611 38.8369 22.2495 38.5733 22.239M34.9066 25.4473L23.8333 36.5573V40.334H27.61L38.72 29.2057M36.6666 7.33398H7.33329C6.36083 7.33398 5.4282 7.72029 4.74057 8.40793C4.05293 9.09556 3.66663 10.0282 3.66663 11.0007V33.0007C3.66663 33.9731 4.05293 34.9057 4.74057 35.5934C5.4282 36.281 6.36083 36.6673 7.33329 36.6673H20.1666V35.0357L35.2733 19.9657C36.135 19.0673 37.3266 18.5723 38.5733 18.5723C39.1966 18.5723 39.82 18.6823 40.4066 18.9207V11.0007C40.4066 8.94732 38.72 7.33398 36.6666 7.33398ZM36.6666 14.6673L22 23.834L7.33329 14.6673V11.0007L22 20.1673L36.6666 11.0007" fill="#FF9F41"/>
</svg>
