<svg width="21" height="23" viewBox="0 0 21 23" fill="none" xmlns="http://www.w3.org/2000/svg">
<path id="Vector" d="M16.134 10.502C16.715 15.877 19 17.502 19 17.502H1C1 17.502 4 15.369 4 7.90195C4 6.20495 4.632 4.57695 5.757 3.37695C6.882 2.17695 8.41 1.50195 10 1.50195C10.338 1.50195 10.6713 1.53195 11 1.59195M11.73 20.502C11.5542 20.805 11.3018 21.0566 10.9982 21.2315C10.6946 21.4064 10.3504 21.4984 10 21.4984C9.64962 21.4984 9.30539 21.4064 9.00177 21.2315C8.69816 21.0566 8.44581 20.805 8.27 20.502M17 7.50195C17.7956 7.50195 18.5587 7.18588 19.1213 6.62327C19.6839 6.06066 20 5.2976 20 4.50195C20 3.7063 19.6839 2.94324 19.1213 2.38063C18.5587 1.81802 17.7956 1.50195 17 1.50195C16.2044 1.50195 15.4413 1.81802 14.8787 2.38063C14.3161 2.94324 14 3.7063 14 4.50195C14 5.2976 14.3161 6.06066 14.8787 6.62327C15.4413 7.18588 16.2044 7.50195 17 7.50195Z" stroke="#092BC8" stroke-width="1.5" stroke-linecap="round" stroke-linejoin="round"/>
</svg>
