<svg width="60" height="61" viewBox="0 0 60 61" fill="none" xmlns="http://www.w3.org/2000/svg">
<g id="streamline:live-video" clip-path="url(#clip0_2073_2589)">
<g id="Group">
<path id="Vector" d="M2.61423 26.81C2.33432 29.0771 2.33432 31.3701 2.61423 33.6372M13.3499 8.21003C15.1738 6.83318 17.1602 5.68599 19.2642 4.79431M4.57709 19.4857C5.46743 17.3819 6.61317 15.3955 7.98852 13.5715M21.4885 38.06V22.94C21.4885 21.1915 23.5199 20.0857 25.1742 20.9343L39.9214 28.4986C40.3028 28.6759 40.6255 28.9585 40.8517 29.3131C41.0779 29.6676 41.1981 30.0795 41.1981 30.5C41.1981 30.9206 41.0779 31.3324 40.8517 31.687C40.6255 32.0416 40.3028 32.3242 39.9214 32.5015L25.1785 40.0657C23.5199 40.9143 21.4885 39.8086 21.4885 38.06Z" stroke="#394ff3" stroke-width="4" stroke-linecap="round" stroke-linejoin="round"/>
<path id="Vector_2" d="M30.0513 2.64288C45.2656 2.64288 57.5956 15.1143 57.5956 30.5C57.5956 45.8857 45.2656 58.3572 30.0513 58.3572C19.5685 58.3572 10.4527 52.4343 5.79846 43.7172" stroke="#394ff3" stroke-width="4" stroke-linecap="round" stroke-linejoin="round"/>
</g>
</g>
<defs>
<clipPath id="clip0_2073_2589">
<rect width="60" height="60" fill="white" transform="translate(0 0.5)"/>
</clipPath>
</defs>
</svg>
