<svg width="60" height="60" viewBox="0 0 60 60" fill="none" xmlns="http://www.w3.org/2000/svg">
<g id="streamline:live-video" clip-path="url(#clip0_466_5989)">
<g id="Group">
<path id="Vector" d="M2.61423 26.3106C2.33432 28.5777 2.33432 30.8707 2.61423 33.1378M13.3499 7.71064C15.1738 6.33379 17.1602 5.1866 19.2642 4.29492M4.57709 18.9863C5.46743 16.8825 6.61317 14.8962 7.98852 13.0721M21.4885 37.5606V22.4406C21.4885 20.6921 23.5199 19.5864 25.1742 20.4349L39.9214 27.9992C40.3028 28.1765 40.6255 28.4591 40.8517 28.8137C41.0779 29.1682 41.1981 29.5801 41.1981 30.0006C41.1981 30.4212 41.0779 30.833 40.8517 31.1876C40.6255 31.5422 40.3028 31.8248 39.9214 32.0021L25.1785 39.5664C23.5199 40.4149 21.4885 39.3092 21.4885 37.5606Z" stroke="white" stroke-width="4" stroke-linecap="round" stroke-linejoin="round"/>
<path id="Vector_2" d="M30.0514 2.14258C45.2657 2.14258 57.5957 14.614 57.5957 29.9997C57.5957 45.3854 45.2657 57.8569 30.0514 57.8569C19.5686 57.8569 10.4529 51.934 5.79858 43.2169" stroke="white" stroke-width="4" stroke-linecap="round" stroke-linejoin="round"/>
</g>
</g>
<defs>
<clipPath id="clip0_466_5989">
<rect width="60" height="60" fill="white"/>
</clipPath>
</defs>
</svg>
