<svg width="16" height="17" viewBox="0 0 16 17" fill="none" xmlns="http://www.w3.org/2000/svg">
<path d="M7.99967 15.2279C4.31767 15.2279 1.33301 12.2432 1.33301 8.5612C1.33301 4.8792 4.31767 1.89453 7.99967 1.89453C11.6817 1.89453 14.6663 4.8792 14.6663 8.5612C14.6663 12.2432 11.6817 15.2279 7.99967 15.2279ZM7.33301 10.5612V11.8945H8.66634V10.5612H7.33301ZM8.66634 9.46453C9.20212 9.30305 9.66208 8.9545 9.96245 8.48236C10.2628 8.01022 10.3836 7.4459 10.3028 6.89218C10.2221 6.33845 9.94508 5.83216 9.52235 5.4655C9.09962 5.09885 8.55926 4.89622 7.99967 4.89453C7.46021 4.89436 6.93735 5.08113 6.52008 5.42304C6.1028 5.76496 5.8169 6.24089 5.71101 6.76986L7.01901 7.03186C7.05613 6.84615 7.14522 6.6748 7.27592 6.53774C7.40662 6.40068 7.57355 6.30356 7.75729 6.25767C7.94103 6.21178 8.13403 6.219 8.31382 6.27851C8.49362 6.33802 8.65281 6.44736 8.7729 6.5938C8.89298 6.74025 8.969 6.91779 8.99213 7.10576C9.01525 7.29373 8.98453 7.4844 8.90352 7.65559C8.82252 7.82677 8.69457 7.97144 8.53456 8.07275C8.37455 8.17406 8.18906 8.22785 7.99967 8.22786C7.82286 8.22786 7.65329 8.2981 7.52827 8.42313C7.40325 8.54815 7.33301 8.71772 7.33301 8.89453V9.89453H8.66634V9.46453Z" fill="#27B605"/>
</svg>
