<svg width="44" height="44" viewBox="0 0 44 44" fill="none" xmlns="http://www.w3.org/2000/svg">
<g clip-path="url(#clip0_2205_7317)">
<path fill-rule="evenodd" clip-rule="evenodd" d="M21.9938 0.144532C25.2603 0.1436 28.4856 0.874918 31.4323 2.2847C34.379 3.69448 36.9722 5.74687 39.0212 8.29091C41.0702 10.835 42.5229 13.806 43.2724 16.9854C44.0219 20.1648 44.0491 23.4718 43.3521 26.6632C42.6552 29.8546 41.2517 32.8491 39.2449 35.4266C37.2381 38.0041 34.6791 40.0989 31.756 41.5571C28.8329 43.0152 25.6202 43.7996 22.354 43.8525C19.0879 43.9054 15.8514 43.2255 12.8826 41.8628L1.98948 43.8334C1.7163 43.8822 1.43508 43.8578 1.1744 43.7626C0.913718 43.6675 0.68288 43.505 0.505355 43.2917C0.327831 43.0785 0.209951 42.822 0.163702 42.5483C0.117453 42.2747 0.144485 41.9937 0.242048 41.734L3.36605 33.418C1.33685 30.106 0.22693 26.3132 0.150539 22.4298C0.074148 18.5464 1.03405 14.7128 2.93143 11.3237C4.82881 7.93452 7.59511 5.11224 10.9456 3.14734C14.2961 1.18245 18.1096 0.14595 21.9938 0.144532ZM20.8026 13.97C21.2297 13.794 21.6904 13.7149 22.1517 13.7382C22.6129 13.7616 23.0633 13.8868 23.4704 14.1049C23.8776 14.323 24.2313 14.6286 24.5063 14.9997C24.7812 15.3708 24.9706 15.7982 25.0607 16.2512C25.1508 16.7042 25.1395 17.1715 25.0275 17.6196C24.9155 18.0677 24.7057 18.4854 24.4131 18.8427C24.1204 19.2001 23.7523 19.4881 23.3351 19.6862C22.9178 19.8844 22.4619 19.9876 22 19.9885C21.4791 19.9885 20.9795 20.1955 20.6111 20.5639C20.2427 20.9322 20.0358 21.4319 20.0358 21.9528V25.3471C20.0358 25.8681 20.2427 26.3677 20.6111 26.7361C20.9795 27.1044 21.4791 27.3114 22 27.3114C22.521 27.3114 23.0206 27.1044 23.389 26.7361C23.7574 26.3677 23.9643 25.8681 23.9643 25.3471V23.6342C25.2232 23.2693 26.3556 22.561 27.2345 21.5886C28.1134 20.6162 28.7041 19.4182 28.9403 18.1289C29.1765 16.8396 29.0488 15.5101 28.5718 14.2892C28.0947 13.0684 27.2869 12.0046 26.2391 11.2171C25.1913 10.4297 23.9449 9.9496 22.6396 9.8308C21.3342 9.712 20.0216 9.95915 18.8489 10.5445C17.6761 11.1299 16.6896 12.0304 16 13.145C15.3103 14.2597 14.9448 15.5444 14.9443 16.8551C14.9443 17.3761 15.1513 17.8757 15.5197 18.2441C15.888 18.6124 16.3877 18.8194 16.9086 18.8194C17.4296 18.8194 17.9292 18.6124 18.2976 18.2441C18.666 17.8757 18.8729 17.3761 18.8729 16.8551C18.873 16.2368 19.0564 15.6325 19.3999 15.1184C19.7433 14.6043 20.2315 14.2036 20.8026 13.9668V13.97ZM22 35.7971C21.254 35.7963 20.5389 35.4991 20.012 34.971C19.4851 34.4429 19.1895 33.7271 19.1903 32.9811C19.1912 32.2351 19.4883 31.52 20.0164 30.993C20.5445 30.4661 21.2603 30.1706 22.0063 30.1714H22.0126C22.7586 30.1722 23.4738 30.4694 24.0007 30.9975C24.5276 31.5256 24.8232 32.2414 24.8223 32.9874C24.8215 33.7334 24.5243 34.4485 23.9962 34.9755C23.4681 35.5024 22.7523 35.7979 22.0063 35.7971H22Z" fill="#FF9F41"/>
</g>
<defs>
<clipPath id="clip0_2205_7317">
<rect width="44" height="44" fill="white"/>
</clipPath>
</defs>
</svg>
