<svg width="21" height="21" viewBox="0 0 21 21" fill="none" xmlns="http://www.w3.org/2000/svg">
<path d="M6.125 11.8106H11.375C11.4992 11.8106 11.6031 11.7686 11.6865 11.6846C11.7699 11.6006 11.8119 11.4965 11.8125 11.3722C11.8131 11.248 11.7711 11.1441 11.6865 11.0607C11.6019 10.9773 11.4981 10.9356 11.375 10.9356H6.125C6.00075 10.9356 5.89692 10.9776 5.8135 11.0616C5.73008 11.1456 5.68808 11.2497 5.6875 11.374C5.68692 11.4982 5.72892 11.6021 5.8135 11.6855C5.89808 11.7689 6.00192 11.8106 6.125 11.8106ZM6.125 9.1856H14.875C14.9992 9.1856 15.1031 9.1436 15.1865 9.0596C15.2699 8.9756 15.3119 8.87147 15.3125 8.74722C15.3131 8.62297 15.2711 8.51914 15.1865 8.43572C15.1019 8.35231 14.9981 8.3106 14.875 8.3106H6.125C6.00075 8.3106 5.89692 8.3526 5.8135 8.4366C5.73008 8.5206 5.68808 8.62472 5.6875 8.74897C5.68692 8.87322 5.72892 8.97706 5.8135 9.06047C5.89808 9.14389 6.00192 9.1856 6.125 9.1856ZM6.125 6.5606H14C14.1242 6.5606 14.2281 6.5186 14.3115 6.4346C14.3949 6.3506 14.4369 6.24647 14.4375 6.12222C14.4381 5.99797 14.3961 5.89414 14.3115 5.81072C14.2269 5.72731 14.1231 5.6856 14 5.6856H6.125C6.00075 5.6856 5.89692 5.7276 5.8135 5.8116C5.73008 5.8956 5.68808 5.99972 5.6875 6.12397C5.68692 6.24822 5.72892 6.35206 5.8135 6.43547C5.89808 6.51889 6.00192 6.5606 6.125 6.5606ZM5.31737 14.8731L3.82638 16.3641C3.60529 16.5852 3.34979 16.6351 3.05987 16.5137C2.76996 16.3924 2.625 16.176 2.625 15.8645V4.0371C2.625 3.63402 2.76004 3.29772 3.03012 3.02822C3.30021 2.75872 3.63621 2.62368 4.03812 2.6231H12.2159C12.3448 2.6231 12.4527 2.67064 12.5396 2.76572C12.6265 2.86081 12.6645 2.97047 12.6534 3.09472C12.6423 3.20789 12.595 3.30327 12.5116 3.38085C12.4282 3.45902 12.3299 3.4981 12.2167 3.4981H4.039C3.90425 3.4981 3.78058 3.5541 3.668 3.6661C3.55542 3.7781 3.49942 3.90147 3.5 4.03622V15.4375L4.94375 13.9981H16.9619C17.096 13.9981 17.2194 13.9421 17.332 13.8301C17.4446 13.7181 17.5006 13.5947 17.5 13.46V7.82235C17.5 7.69868 17.542 7.59485 17.626 7.51085C17.71 7.42685 17.8141 7.38485 17.9384 7.38485C18.0626 7.38485 18.1665 7.42685 18.2499 7.51085C18.3333 7.59485 18.375 7.69868 18.375 7.82235V13.46C18.375 13.8625 18.2402 14.1985 17.9707 14.468C17.7012 14.7375 17.365 14.8725 16.9619 14.8731H5.31737ZM16.6267 5.65235C16.0201 5.65235 15.5035 5.43972 15.0771 5.01447C14.6507 4.58922 14.4375 4.07297 14.4375 3.46572C14.4375 2.85847 14.6501 2.34222 15.0754 1.91697C15.5006 1.49172 16.0166 1.27852 16.6232 1.27735C17.2299 1.27618 17.7465 1.48852 18.1729 1.91435C18.5993 2.34018 18.8125 2.85643 18.8125 3.4631C18.8125 4.06977 18.6002 4.58602 18.1755 5.01185C17.7508 5.43768 17.2346 5.65118 16.6267 5.65235ZM3.5 4.0371V15.21V3.4981V4.0371Z" fill="#092BC8"/>
</svg>
