<svg width="17" height="19" viewBox="0 0 17 19" fill="none" xmlns="http://www.w3.org/2000/svg">
<path d="M8.50002 11.7664C8.18268 11.7664 7.93335 11.5171 7.93335 11.1997V2.13307C7.93335 1.81574 8.18268 1.56641 8.50002 1.56641C8.81735 1.56641 9.06668 1.81574 9.06668 2.13307V11.1997C9.06668 11.5171 8.81735 11.7664 8.50002 11.7664Z" fill="#07898A"/>
<path d="M10.7666 4.96641C10.6923 4.96731 10.6186 4.95266 10.5503 4.92338C10.482 4.8941 10.4206 4.85085 10.37 4.79641L8.49997 2.92641L6.62997 4.79641C6.4033 5.02307 6.05197 5.02307 5.8253 4.79641C5.59863 4.56974 5.59863 4.21841 5.8253 3.99174L8.1033 1.73641C8.32997 1.50974 8.6813 1.50974 8.90797 1.73641L11.1746 4.00307C11.4013 4.22974 11.4013 4.58107 11.1746 4.80774C11.0613 4.92107 10.914 4.97774 10.778 4.97774L10.7666 4.96641ZM14.1666 17.4331H2.8333C1.89263 17.4331 1.1333 16.6737 1.1333 15.7331V7.79974C1.1333 6.85907 1.89263 6.09974 2.8333 6.09974H5.09997C5.4173 6.09974 5.66663 6.34907 5.66663 6.66641C5.66663 6.98374 5.4173 7.23307 5.09997 7.23307H2.8333C2.51597 7.23307 2.26663 7.48241 2.26663 7.79974V15.7331C2.26663 16.0504 2.51597 16.2997 2.8333 16.2997H14.1666C14.484 16.2997 14.7333 16.0504 14.7333 15.7331V7.79974C14.7333 7.48241 14.484 7.23307 14.1666 7.23307H11.9C11.5826 7.23307 11.3333 6.98374 11.3333 6.66641C11.3333 6.34907 11.5826 6.09974 11.9 6.09974H14.1666C15.1073 6.09974 15.8666 6.85907 15.8666 7.79974V15.7331C15.8666 16.6737 15.1073 17.4331 14.1666 17.4331Z" fill="#07898A"/>
</svg>
