<svg width="18" height="19" viewBox="0 0 18 19" fill="none" xmlns="http://www.w3.org/2000/svg">
<path fill-rule="evenodd" clip-rule="evenodd" d="M9.00004 1.4375C8.05521 1.4375 7.14907 1.81283 6.48097 2.48093C5.81288 3.14903 5.43754 4.05517 5.43754 5C5.43754 5.94483 5.81288 6.85097 6.48097 7.51907C7.14907 8.18716 8.05521 8.5625 9.00004 8.5625C9.94487 8.5625 10.851 8.18716 11.5191 7.51907C12.1872 6.85097 12.5625 5.94483 12.5625 5C12.5625 4.05517 12.1872 3.14903 11.5191 2.48093C10.851 1.81283 9.94487 1.4375 9.00004 1.4375ZM6.56254 5C6.56254 4.35353 6.81935 3.73355 7.27647 3.27643C7.73359 2.81931 8.35358 2.5625 9.00004 2.5625C9.64651 2.5625 10.2665 2.81931 10.7236 3.27643C11.1807 3.73355 11.4375 4.35353 11.4375 5C11.4375 5.64646 11.1807 6.26645 10.7236 6.72357C10.2665 7.18069 9.64651 7.4375 9.00004 7.4375C8.35358 7.4375 7.73359 7.18069 7.27647 6.72357C6.81935 6.26645 6.56254 5.64646 6.56254 5ZM9.00004 9.6875C7.26529 9.6875 5.66629 10.082 4.48204 10.748C3.31504 11.405 2.43754 12.3995 2.43754 13.625V13.7015C2.43679 14.573 2.43604 15.6665 3.39529 16.448C3.86704 16.832 4.52779 17.1057 5.42029 17.2857C6.31429 17.4672 7.48054 17.5625 9.00004 17.5625C10.5195 17.5625 11.685 17.4672 12.5805 17.2857C13.473 17.1057 14.133 16.832 14.6055 16.448C15.5648 15.6665 15.5633 14.573 15.5625 13.7015V13.625C15.5625 12.3995 14.685 11.405 13.5188 10.748C12.3338 10.082 10.7355 9.6875 9.00004 9.6875ZM3.56254 13.625C3.56254 12.9867 4.02904 12.2937 5.03329 11.729C6.02029 11.174 7.42129 10.8125 9.00079 10.8125C10.5788 10.8125 11.9798 11.174 12.9668 11.729C13.9718 12.2937 14.4375 12.9867 14.4375 13.625C14.4375 14.606 14.4075 15.158 13.8945 15.575C13.617 15.8015 13.152 16.0227 12.357 16.1832C11.5643 16.3437 10.4805 16.4375 9.00004 16.4375C7.51954 16.4375 6.43504 16.3437 5.64304 16.1832C4.84804 16.0227 4.38304 15.8015 4.10554 15.5757C3.59254 15.158 3.56254 14.606 3.56254 13.625Z" fill="#838383"/>
</svg>
