<svg width="32" height="33" viewBox="0 0 32 33" fill="none" xmlns="http://www.w3.org/2000/svg">
<path d="M9.55941 30.8247C6.38608 30.8247 3.78613 28.518 3.78613 25.678V22.958C3.78613 22.4113 4.23947 21.958 4.78613 21.958C5.3328 21.958 5.78613 22.4113 5.78613 22.958C5.78613 24.6247 7.39941 25.878 9.55941 25.878C11.7194 25.878 13.3328 24.6247 13.3328 22.958C13.3328 22.4113 13.7861 21.958 14.3327 21.958C14.8794 21.958 15.3327 22.4113 15.3327 22.958V25.678C15.3327 28.518 12.7461 30.8247 9.55941 30.8247ZM6.13273 26.9847C6.7194 28.078 8.03941 28.8247 9.55941 28.8247C11.0794 28.8247 12.3994 28.0647 12.9861 26.9847C12.0394 27.558 10.8661 27.8913 9.55941 27.8913C8.25275 27.8913 7.0794 27.558 6.13273 26.9847Z" fill="#092BC8"/>
<path d="M9.55941 24.2247C7.37275 24.2247 5.41279 23.2247 4.43945 21.6381C4.01279 20.9447 3.78613 20.1314 3.78613 19.3047C3.78613 17.9047 4.39945 16.5981 5.51945 15.6247C7.67945 13.7314 11.3994 13.7315 13.5727 15.6115C14.6927 16.5982 15.3194 17.9047 15.3194 19.3047C15.3194 20.1314 15.0927 20.9447 14.6661 21.6381C13.7061 23.2247 11.7461 24.2247 9.55941 24.2247ZM9.55941 16.1582C8.51941 16.1582 7.55944 16.5047 6.83944 17.1314C6.15944 17.7181 5.78613 18.4914 5.78613 19.3047C5.78613 19.7714 5.90608 20.1982 6.14608 20.5982C6.75941 21.6115 8.06608 22.2382 9.55941 22.2382C11.0527 22.2382 12.3594 21.6115 12.9594 20.6115C13.1994 20.2249 13.3194 19.7849 13.3194 19.3182C13.3194 18.5049 12.9461 17.7314 12.2661 17.1314C11.5595 16.5047 10.5994 16.1582 9.55941 16.1582Z" fill="#092BC8"/>
<path d="M9.55941 27.8925C6.26608 27.8925 3.78613 25.7725 3.78613 22.9725V19.3058C3.78613 16.4658 6.37275 14.1592 9.55941 14.1592C11.0661 14.1592 12.5061 14.6792 13.5861 15.6125C14.7061 16.5992 15.3327 17.9058 15.3327 19.3058V22.9725C15.3327 25.7725 12.8527 27.8925 9.55941 27.8925ZM9.55941 16.1592C7.47941 16.1592 5.78613 17.5725 5.78613 19.3058V22.9725C5.78613 24.6392 7.39941 25.8925 9.55941 25.8925C11.7194 25.8925 13.3328 24.6392 13.3328 22.9725V19.3058C13.3328 18.4925 12.9595 17.7192 12.2795 17.1192C11.5595 16.5058 10.5994 16.1592 9.55941 16.1592Z" fill="#092BC8"/>
<path d="M25.3862 20.2255C23.3729 20.2255 21.6662 18.7321 21.5062 16.8121C21.3996 15.7055 21.7996 14.6255 22.5996 13.8388C23.2662 13.1454 24.2129 12.7588 25.2129 12.7588H27.9996C29.3196 12.7988 30.3329 13.8388 30.3329 15.1188V17.8655C30.3329 19.1455 29.3196 20.1855 28.0396 20.2255H25.3862ZM27.9596 14.7588H25.2262C24.7596 14.7588 24.3329 14.9321 24.0262 15.2521C23.6396 15.6255 23.4529 16.1321 23.5062 16.6388C23.5729 17.5188 24.4262 18.2255 25.3862 18.2255H27.9996C28.1729 18.2255 28.3329 18.0655 28.3329 17.8655V15.1188C28.3329 14.9188 28.1729 14.7721 27.9596 14.7588Z" fill="#092BC8"/>
<path d="M21.3333 28.8258H17.9999C17.4533 28.8258 16.9999 28.3725 16.9999 27.8258C16.9999 27.2792 17.4533 26.8258 17.9999 26.8258H21.3333C24.7733 26.8258 26.9999 24.5992 26.9999 21.1592V20.2258H25.3866C23.3733 20.2258 21.6666 18.7325 21.5066 16.8125C21.3999 15.7058 21.8001 14.6258 22.6001 13.8392C23.2667 13.1459 24.2133 12.7592 25.2133 12.7592H26.9866V11.8258C26.9866 8.70585 25.1601 6.55915 22.2001 6.21249C21.8801 6.15915 21.5999 6.15918 21.3199 6.15918H9.31999C8.99999 6.15918 8.69331 6.18583 8.38664 6.22583C5.45331 6.59917 3.65332 8.73251 3.65332 11.8258V14.4925C3.65332 15.0392 3.19999 15.4925 2.65332 15.4925C2.10665 15.4925 1.65332 15.0392 1.65332 14.4925V11.8258C1.65332 7.71918 4.18671 4.74586 8.12004 4.25253C8.48004 4.19919 8.89332 4.15918 9.31999 4.15918H21.3199C21.6399 4.15918 22.0533 4.17251 22.4799 4.23918C26.4133 4.69251 28.9866 7.67918 28.9866 11.8258V13.7592C28.9866 14.3058 28.5333 14.7592 27.9866 14.7592H25.2133C24.7466 14.7592 24.3201 14.9325 24.0134 15.2525C23.6267 15.6258 23.4399 16.1325 23.4933 16.6392C23.5599 17.5192 24.4134 18.2258 25.3734 18.2258H27.9999C28.5466 18.2258 28.9999 18.6792 28.9999 19.2258V21.1592C28.9999 25.7458 25.9199 28.8258 21.3333 28.8258Z" fill="#092BC8"/>
</svg>
